<svg xmlns="http://www.w3.org/2000/svg" xmlns:xlink="http://www.w3.org/1999/xlink" viewBox="0 0 302.44 106.4"><defs><style>.cls-1,.cls-3{fill:none;}.cls-2{clip-path:url(#clip-path);}.cls-3{stroke:#0d321c;stroke-linecap:round;stroke-linejoin:round;stroke-width:1.22px;}.cls-4{fill:#0d321c;}</style><clipPath id="clip-path" transform="translate(0 0)"><rect class="cls-1" width="302.44" height="106.4"/></clipPath></defs><g id="Layer_2" data-name="Layer 2"><g id="Layer_1-2" data-name="Layer 1"><g class="cls-2"><path class="cls-3" d="M45.05,33.36V28.58c0-.15,0-.26-.16-.35l-8.23-4.7a.45.45,0,0,0-.53,0l-8.19,4.71a.37.37,0,0,0-.17.27q0,4.83,0,9.66a.36.36,0,0,0,.15.28l8.3,4.76a.38.38,0,0,0,.43,0q4.08-2.37,8.16-4.7a.4.4,0,0,0,.24-.41c0-1.58,0-3.16,0-4.74m-44-15.42h0c0,1.6,0,3.2,0,4.79a.39.39,0,0,0,.15.31C4,24.61,6.69,26.16,9.42,27.72a.62.62,0,0,0,.7,0q4-2.33,8.08-4.64a.36.36,0,0,0,.2-.37c0-3.17,0-6.33,0-9.5a.35.35,0,0,0-.2-.35q-4-2.29-8-4.6a.78.78,0,0,0-.9,0L1.24,12.85a.32.32,0,0,0-.18.33v4.76M20.84,42.09l.29-.18,5.9-3.4a.44.44,0,0,0,.25-.44c0-3.15,0-6.31,0-9.46a.38.38,0,0,0-.19-.39c-2.67-1.52-5.35-3-8-4.59a.8.8,0,0,0-.93,0q-4,2.3-8,4.56a.38.38,0,0,0-.21.38q0,4.77,0,9.55a.38.38,0,0,0,.22.37c1.9,1.09,3.8,2.2,5.69,3.31a1.08,1.08,0,0,1,.29.18,1,1,0,0,1,.11.23c-.09,0-.2.1-.27.07a9,9,0,0,1-.82-.41l-5-2.83-.28-.16c-.06.16-.13.31-.17.46L8.21,44.94c-.05.2-.11.41-.18.61s-.11.32-.47.17q.9-3.4,1.83-6.88l-.28,0L2.7,40.58c-.32.09-.36.05-.38-.33l1.84-.51L9.11,38.4c.26-.07.38-.16.38-.46,0-3,0-6,0-9.07,0,0,0-.07,0-.15l-.21-.53-3-1.71L.87,23.37a.45.45,0,0,1-.26-.46q0-5,0-9.94a.42.42,0,0,1,.25-.43L9.22,7.72a.45.45,0,0,0,.28-.47c0-2.1,0-4.19,0-6.29V.61H10V.94c0,2.11,0,4.21,0,6.32a.49.49,0,0,0,.29.5l8.27,4.75a.48.48,0,0,1,.27.48c0,3.21,0,6.42,0,9.63a.53.53,0,0,0,.31.52c2.62,1.49,5.25,3,7.87,4.5a.92.92,0,0,0,1,0c2.62-1.53,5.27-3,7.91-4.55a.36.36,0,0,0,.21-.36q0-3.25,0-6.49v-.32h.41v.29c0,2.12,0,4.24,0,6.35a.61.61,0,0,0,.34.61c2.78,1.58,5.55,3.19,8.32,4.78a.42.42,0,0,1,.25.43q0,4.85,0,9.69a.43.43,0,0,0,.24.44c2.68,1.54,5.36,3.07,8,4.63a.71.71,0,0,0,.83,0c2.67-1.55,5.37-3.08,8-4.63a.77.77,0,0,1,.9,0c2.72,1.59,5.46,3.15,8.18,4.73a.39.39,0,0,0,.47,0l8.38-4.85a.48.48,0,0,1,.55,0l6,3.49a2,2,0,0,1,.34.23.2.2,0,0,1,.05.2.25.25,0,0,1-.21.09,3.38,3.38,0,0,1-.58-.27c-1.76-1-3.53-2-5.28-3a1,1,0,0,0-1.13,0c-2.61,1.5-5.23,3-7.83,4.46a.92.92,0,0,1-1.07,0c-2.6-1.51-5.22-3-7.82-4.48a.92.92,0,0,0-1.07,0c-2.6,1.5-5.22,3-7.82,4.46a1,1,0,0,1-1.15,0C51,42,48.35,40.52,45.74,39a.75.75,0,0,0-.87,0c-2.65,1.53-5.31,3-8,4.56a.89.89,0,0,1-1,0C33.25,42,30.61,40.55,28,39A.83.83,0,0,0,27,39c-1.89,1.11-3.79,2.18-5.69,3.26-.27.16-.33.14-.51-.19" transform="translate(0 0)"/><path class="cls-4" d="M281,54.27v1.18l2.86.3a1,1,0,0,1,1.08,1.18c.05,9.35.05,17.68,0,27.23a1.07,1.07,0,0,1-1.08,1.18l-2.81.25v1.18H293.3V85.54L289,85.18a1.08,1.08,0,0,1-1-1.22c0-4.65-.05-8.94-.05-13.18H295A1.26,1.26,0,0,1,296.51,72c.36,1.43.67,2.81.92,4h1.18V66.28h-1.23l-.81,2.3a1.54,1.54,0,0,1-1.59.92h-7.1c0-4.35.05-8.74.05-13.54a44,44,0,0,1,4.91-.41h5.31a1.14,1.14,0,0,1,1.17,1c.46,1.84.92,4,1.23,5.77h1.18c.25-2.65.51-5.31.71-8ZM258.14,73.33,263.92,57c1.94,5.47,3.88,10.93,5.77,16.4-3.88.05-7.71.05-11.55,0m20.59,12.06a2.49,2.49,0,0,1-2.24-1.84c-3.58-9.91-7.11-19.88-10.68-29.89l-2.4.87-10,27.89a3.71,3.71,0,0,1-2.4,2.46,11.23,11.23,0,0,1-1.69.71v1.18h9.41V85.59a24.84,24.84,0,0,1-3.22-1c-.82-.31-1-.77-.72-1.63l2.91-8.23c4.14.05,8.28.05,12.52,0L273.42,84c.31.76,0,1.22-.87,1.33l-3,.3v1.18h10.73V85.59ZM246.8,78.24c-.66,2.19-1.38,4.34-2.2,6.38a1.2,1.2,0,0,1-1.27.87L233.06,85c0-5.16-.05-9.86-.05-14.51h7.61c.71,0,1,.31,1.17,1,.41,1.33.67,2.91.92,4.09h1.18c.1-3.37.1-6.75,0-10.12h-1.18a23,23,0,0,1-.92,2.91,1.11,1.11,0,0,1-1.22.87H233c0-4.29.05-8.58.05-13.23a35.6,35.6,0,0,1,4.9-.41h5.16a1.05,1.05,0,0,1,1.18,1c.46,1.84.87,3.73,1.17,5.62h1.13c.3-2.66.46-5.26.66-7.92H226.11v1.18l2.86.3A1,1,0,0,1,230,56.93c.05,9.09.05,18.09,0,27.18A1.12,1.12,0,0,1,229,85.34l-2.86.25v1.18H247c.4-2.81.71-5.67,1-8.53Zm-44.71,8.53h20.13c.41-3.17.77-6.49,1.18-9.81h-1.18c-.76,2.55-1.58,5.31-2.4,7.66a1.09,1.09,0,0,1-1.27.82L208.74,85c-.06-9.71-.06-18.85,0-28.1a1.1,1.1,0,0,1,1.07-1.18l3.32-.3V54.27H201.84v1.18l2.86.3a1,1,0,0,1,1,1.18c.05,9,.05,18,0,27.08a1.12,1.12,0,0,1-1,1.23l-2.61.35ZM171.54,55.91a26.88,26.88,0,0,1,3.52-.31c4.25,0,8.69,2.1,8.69,7.77,0,5.41-3,8.17-7.77,8.17a11.18,11.18,0,0,1-4.49-.82c0-5.11,0-10.27,0-14.81m15.33,7.15c0-5.31-3.89-8.79-11-8.79H164.59v1.18l2.86.3A1.06,1.06,0,0,1,168.52,57c.06,9,.06,18.09,0,27.08,0,.72-.3,1.07-1.07,1.18l-2.86.35v1.18H177V85.59l-4.35-.41A1.06,1.06,0,0,1,171.54,84c0-3.53,0-7.46,0-11.45a31.76,31.76,0,0,0,4.34.31c6.8,0,11-3.53,11-9.81m-41.8,22.69c-7.51,0-12.62-6-12.62-15.38.05-8.74,4.7-15.08,12.21-15.08s12.62,6.08,12.62,15.54c-.05,8.63-4.7,14.92-12.21,14.92m-.35,1.43c9.7,0,15.78-6.85,15.78-16.71S154.58,53.91,145,53.91c-9.71,0-15.79,6.85-15.79,16.71s5.93,16.56,15.49,16.56M124.89,54.27H99c-.26,2.71-.52,5.42-.72,8l1.23,0c.61-1.84,1.27-3.62,1.94-5.46a1.28,1.28,0,0,1,1.22-.92l7.72-.36c.05,9.6.05,19,0,28.56a1.08,1.08,0,0,1-1.07,1.18l-3.58.3v1.18H118V85.59l-3.62-.3a1.1,1.1,0,0,1-1.08-1.23c0-9.86,0-19.31,0-28.51l7.77.41a1.29,1.29,0,0,1,1.23,1c.46,1.79.92,3.58,1.32,5.31h1.23ZM76.35,86.77H96.48c.41-3.17.77-6.49,1.18-9.81H96.48c-.76,2.55-1.58,5.31-2.4,7.66a1.1,1.1,0,0,1-1.28.82L83,85c0-9.71,0-18.85,0-28.1a1.11,1.11,0,0,1,1.08-1.18l3.32-.3V54.27H76.09v1.18l2.87.3a1,1,0,0,1,1,1.18c0,9,0,18,0,27.08a1.12,1.12,0,0,1-1,1.23l-2.61.35Zm-24.27,0H72.21c.41-3.17.77-6.49,1.18-9.81H72.21c-.76,2.55-1.58,5.31-2.4,7.66a1.1,1.1,0,0,1-1.28.82L58.72,85c0-9.71,0-18.85,0-28.1a1.11,1.11,0,0,1,1.08-1.18l3.32-.3V54.27H51.83v1.18l2.86.3a1,1,0,0,1,1,1.18c0,9,0,18,0,27.08a1.12,1.12,0,0,1-1,1.23l-2.61.35Zm-14.41,0H48.56V85.59l-2.87-.3a1,1,0,0,1-1.07-1.18c0-9.09,0-18,0-27.13a1.1,1.1,0,0,1,1.07-1.23l2.87-.3V54.27H37.67v1.18l2.86.3A1.07,1.07,0,0,1,41.61,57q.07,13.56,0,27.13c0,.77-.31,1.13-1.08,1.18l-2.86.3Zm-6.13-31,2.86-.3V54.27H23.06v1.18l3.17.3c.82,0,1.12.41,1.12,1.13,0,4.14,0,8.17,0,12.26-6.23.1-12.41.1-18.7,0V56.93c0-.77.36-1.13,1.18-1.18l3.17-.3V54.27H1.7v1.18l2.86.3a1,1,0,0,1,1,1.13q.15,13.63,0,27.28a1,1,0,0,1-1,1.13l-2.86.3v1.18H13.05V85.59l-3.17-.3c-.82-.05-1.18-.41-1.18-1.13V70.52c6.29.1,12.47.1,18.7,0,0,4.55,0,9.09,0,13.64,0,.72-.3,1.08-1.12,1.13l-3.17.3v1.18H34.4V85.59l-2.86-.3a1,1,0,0,1-1.07-1.13c0-9.14,0-18.14,0-27.28a1,1,0,0,1,1.07-1.13" transform="translate(0 0)"/><path class="cls-4" d="M239.49,104a.25.25,0,0,0-.15.2.42.42,0,0,0,.06.18,3.84,3.84,0,0,0,3.6,2,2.92,2.92,0,0,0,3.18-2.87c0-1.74-1.05-2.38-2.82-2.93-1.25-.37-2-.79-2-1.58s.55-1.17,1.47-1.17a2.34,2.34,0,0,1,1.82,1,.27.27,0,0,0,.23.12.37.37,0,0,0,.19-.08l.72-.59a.3.3,0,0,0,.11-.18.33.33,0,0,0-.09-.18,3.48,3.48,0,0,0-3-1.44c-1.7,0-3,.92-3,2.62,0,1.54,1.28,2.4,2.6,2.77,1.49.44,2.14.74,2.14,1.77a1.39,1.39,0,0,1-1.52,1.39,2.5,2.5,0,0,1-2.3-1.53c-.07-.12-.11-.15-.21-.15a.37.37,0,0,0-.19.07Zm-7.84.93V98h1.11a3.47,3.47,0,0,1,0,6.93ZM230.13,106a.25.25,0,0,0,.28.28h2.45c2.61,0,4.94-1.42,4.94-4.81s-2.33-4.81-4.94-4.81h-2.45a.25.25,0,0,0-.28.27Zm-7,0a.25.25,0,0,0,.27.28h4.29a.25.25,0,0,0,.27-.28v-.79a.25.25,0,0,0-.27-.28h-1.39V98h1.25a.25.25,0,0,0,.28-.27v-.8a.25.25,0,0,0-.28-.27h-4a.25.25,0,0,0-.28.27v.8a.25.25,0,0,0,.28.27h1.25v6.93h-1.39a.25.25,0,0,0-.27.28Zm-6.13-.93c-1.6,0-3.11-1.17-3.11-3.6s1.54-3.61,3.11-3.61,3.1,1.15,3.1,3.61-1.51,3.6-3.1,3.6m0,1.34a4.56,4.56,0,0,0,4.7-4.94,4.71,4.71,0,1,0-9.41,0A4.56,4.56,0,0,0,217,106.4M202.46,106a.25.25,0,0,0,.28.28h1A.25.25,0,0,0,204,106V99.52l4.49,6.47a.51.51,0,0,0,.49.28h.71a.25.25,0,0,0,.27-.28V96.92a.24.24,0,0,0-.27-.27h-1a.24.24,0,0,0-.27.27v6.46L204,96.92a.52.52,0,0,0-.49-.27h-.81a.25.25,0,0,0-.28.27Zm-7,0a.25.25,0,0,0,.27.28H200a.25.25,0,0,0,.27-.28v-.79a.25.25,0,0,0-.27-.28H198.6V98h1.25a.25.25,0,0,0,.28-.27v-.8a.25.25,0,0,0-.28-.27h-4a.25.25,0,0,0-.28.27v.8a.25.25,0,0,0,.28.27h1.25v6.93H195.7a.25.25,0,0,0-.27.28Zm-7.24-5.45V98h1.65c.9,0,1.64.29,1.64,1.28s-.74,1.27-1.64,1.27Zm0,4.38v-3h2.23c1.36,0,1.88.52,1.88,1.51s-.56,1.53-1.88,1.53ZM186.68,106a.25.25,0,0,0,.28.28h3.8c2.08,0,3.14-1.24,3.14-2.78a2.46,2.46,0,0,0-1.91-2.57A2.27,2.27,0,0,0,193,99c0-1.43-1.07-2.36-2.84-2.36H187a.25.25,0,0,0-.28.27Zm-7.35-3.74,1.22-3.32,1.21,3.32Zm-3,3.74a.25.25,0,0,0,.27.28h1c.21,0,.29-.1.36-.28l.86-2.39h3.43l.88,2.39a.34.34,0,0,0,.35.28h1a.25.25,0,0,0,.27-.28l-3.45-9.07c-.06-.18-.13-.27-.34-.27h-.8c-.2,0-.27.09-.34.27Zm-9.42,0a.25.25,0,0,0,.28.28h1a.25.25,0,0,0,.27-.28V99.52L173,106a.51.51,0,0,0,.49.28h.71a.25.25,0,0,0,.27-.28V96.92a.24.24,0,0,0-.27-.27h-1a.24.24,0,0,0-.27.27v6.46l-4.39-6.46a.52.52,0,0,0-.49-.27h-.81a.25.25,0,0,0-.28.27Zm-10.22,0a.25.25,0,0,0,.27.28h1a.25.25,0,0,0,.28-.28V99.52l4.49,6.47a.51.51,0,0,0,.5.28h.7a.25.25,0,0,0,.27-.28V96.92a.24.24,0,0,0-.27-.27h-1a.25.25,0,0,0-.28.27v6.46l-4.38-6.46a.52.52,0,0,0-.5-.27H157a.24.24,0,0,0-.27.27Zm-7.36-3.74,1.22-3.32,1.21,3.32Zm-3,3.74a.25.25,0,0,0,.28.28h1c.21,0,.29-.1.36-.28l.87-2.39h3.42l.88,2.39c.07.18.15.28.36.28h1a.25.25,0,0,0,.28-.28l-3.45-9.07c-.07-.18-.14-.27-.35-.27h-.79c-.21,0-.28.09-.35.27Zm-2-2c-.07-.1-.13-.14-.2-.14a.34.34,0,0,0-.24.11,3.3,3.3,0,0,1-2.42,1.06c-1.62,0-3.09-1.18-3.09-3.6s1.55-3.61,3.13-3.61a3.19,3.19,0,0,1,2.34.93.34.34,0,0,0,.18.08c.1,0,.11,0,.21-.14l.53-.69a.39.39,0,0,0,.09-.19.31.31,0,0,0-.14-.22,4.85,4.85,0,0,0-3.18-1.11,4.61,4.61,0,0,0-4.75,4.95c0,3.34,2.17,4.94,4.64,4.94a4.46,4.46,0,0,0,3.4-1.26.29.29,0,0,0,.12-.22.5.5,0,0,0-.09-.22Zm-19.78,2a.25.25,0,0,0,.28.28h5.83A.25.25,0,0,0,131,106v-.79a.25.25,0,0,0-.27-.28h-4.6v-8a.24.24,0,0,0-.27-.27h-1a.25.25,0,0,0-.28.27Zm-7.35-3.74,1.22-3.32,1.21,3.32Zm-3,3.74a.25.25,0,0,0,.27.28h1c.21,0,.29-.1.36-.28l.86-2.39h3.43l.88,2.39a.34.34,0,0,0,.35.28h1a.25.25,0,0,0,.27-.28l-3.45-9.07c-.06-.18-.13-.27-.34-.27h-.8c-.2,0-.27.09-.34.27Zm-2-2a.26.26,0,0,0-.21-.14.33.33,0,0,0-.23.11,3.32,3.32,0,0,1-2.42,1.06c-1.62,0-3.09-1.18-3.09-3.6s1.55-3.61,3.13-3.61a3.19,3.19,0,0,1,2.34.93.31.31,0,0,0,.18.08c.09,0,.11,0,.2-.14l.54-.69a.45.45,0,0,0,.08-.19.28.28,0,0,0-.14-.22,4.82,4.82,0,0,0-3.17-1.11,4.61,4.61,0,0,0-4.76,4.95c0,3.34,2.18,4.94,4.65,4.94a4.44,4.44,0,0,0,3.39-1.26.28.28,0,0,0,.13-.22.44.44,0,0,0-.1-.22Zm-13.87,2a.25.25,0,0,0,.27.28H103a.25.25,0,0,0,.28-.28v-.79a.25.25,0,0,0-.28-.28h-1.38V98h1.25a.24.24,0,0,0,.27-.27v-.8a.24.24,0,0,0-.27-.27h-4a.24.24,0,0,0-.27.27v.8a.24.24,0,0,0,.27.27h1.25v6.93H98.73a.25.25,0,0,0-.27.28Zm-6.2,0a.25.25,0,0,0,.28.28h1a.25.25,0,0,0,.27-.28V98h2.67a.24.24,0,0,0,.27-.27v-.8a.24.24,0,0,0-.27-.27H89.59a.24.24,0,0,0-.27.27v.8a.24.24,0,0,0,.27.27h2.67Zm-12.58-3.9c0,2.87,1.32,4.31,3.78,4.31s3.78-1.44,3.78-4.31V96.92a.24.24,0,0,0-.27-.27H86a.25.25,0,0,0-.28.27v5.2c0,2-.84,2.94-2.27,2.94s-2.26-.91-2.26-2.94v-5.2a.25.25,0,0,0-.28-.27H80a.25.25,0,0,0-.28.27ZM70.62,106a.25.25,0,0,0,.28.28h6a.25.25,0,0,0,.27-.28v-.79a.25.25,0,0,0-.27-.28H72.14v-3h3.67a.24.24,0,0,0,.27-.27v-.8a.24.24,0,0,0-.27-.27H72.14V98h4.6a.22.22,0,0,0,.25-.25v-.82a.25.25,0,0,0-.28-.27H70.9a.25.25,0,0,0-.28.27Zm-2.68-2a.24.24,0,0,0-.2-.14.35.35,0,0,0-.24.11,3.3,3.3,0,0,1-2.42,1.06c-1.62,0-3.09-1.18-3.09-3.6s1.56-3.61,3.14-3.61a3.18,3.18,0,0,1,2.33.93.34.34,0,0,0,.18.08c.1,0,.11,0,.21-.14l.53-.69a.39.39,0,0,0,.09-.19.28.28,0,0,0-.14-.22,4.83,4.83,0,0,0-3.18-1.11,4.61,4.61,0,0,0-4.75,4.95c0,3.34,2.17,4.94,4.64,4.94a4.46,4.46,0,0,0,3.4-1.26.29.29,0,0,0,.12-.22.4.4,0,0,0-.09-.22Zm-14-1.78,1.22-3.32,1.21,3.32Zm-3,3.74a.25.25,0,0,0,.28.28h1c.21,0,.29-.1.36-.28l.86-2.39h3.43l.88,2.39c.07.18.15.28.35.28h1a.25.25,0,0,0,.28-.28l-3.45-9.07c-.07-.18-.14-.27-.35-.27h-.8c-.2,0-.27.09-.34.27Zm-12,0a.25.25,0,0,0,.27.28h1c.17,0,.26-.1.27-.28L41,99.92,43.3,106c.07.18.14.28.34.28h.83c.2,0,.27-.1.34-.28l2.28-6.07L47.7,106c0,.18.09.28.27.28h1a.25.25,0,0,0,.28-.28l-1-9.07a.31.31,0,0,0-.36-.27h-.75c-.21,0-.28.09-.35.27l-2.68,7.18-2.68-7.18c-.07-.18-.13-.27-.34-.27h-.76c-.2,0-.33.09-.35.27Zm-7.52-5.52V98h2.23c1,0,1.54.46,1.54,1.24s-.5,1.24-1.54,1.24ZM29.87,106a.25.25,0,0,0,.27.28h1a.25.25,0,0,0,.28-.28v-4.18H32l3.11,4.25c.11.15.16.21.37.21H36.8c.12,0,.17-.06.17-.15a.2.2,0,0,0,0-.15l-3-4.16a2.64,2.64,0,0,0,2.78-2.58c0-1.6-1.13-2.58-3.09-2.58H30.14a.24.24,0,0,0-.27.27Zm-7.36-3.74,1.23-3.32L25,102.25Zm-3,3.74a.25.25,0,0,0,.28.28h1c.2,0,.28-.1.35-.28L22,103.6h3.42l.88,2.39c.07.18.15.28.36.28h1a.25.25,0,0,0,.28-.28l-3.45-9.07c-.07-.18-.14-.27-.34-.27h-.8c-.21,0-.28.09-.35.27Zm-9.07,0a.25.25,0,0,0,.28.28h1A.25.25,0,0,0,12,106v-4.11h4.11V106a.25.25,0,0,0,.28.28h1a.25.25,0,0,0,.28-.28V96.92a.25.25,0,0,0-.28-.27h-1a.25.25,0,0,0-.28.27v3.62H12V96.92a.24.24,0,0,0-.27-.27h-1a.25.25,0,0,0-.28.27ZM2.71,101.1V98H5.06a1.56,1.56,0,1,1,0,3.11ZM1.19,106a.25.25,0,0,0,.28.28h1a.25.25,0,0,0,.28-.28v-3.54H5.26a2.82,2.82,0,0,0,3-2.9,2.79,2.79,0,0,0-3.12-2.9H1.47a.25.25,0,0,0-.28.27Z" transform="translate(0 0)"/></g></g></g></svg>